<svg xmlns="http://www.w3.org/2000/svg" viewBox="0 0 48 48" width="48" height="48">
  <defs>
    <linearGradient id="g" x1="0%" y1="0%" x2="100%" y2="100%">
      <stop offset="0%" stop-color="#4CC9F0"/>
      <stop offset="100%" stop-color="#7B61FF"/>
    </linearGradient>
  </defs>
  <circle cx="24" cy="24" r="22" fill="#0a0f1e"/>
  <path d="M24 8c-6 0-10 4-10 10 0 2 1 4 2 5-2 1-4 3-4 6 0 4 3 7 7 9 1-3 4-5 7-5 3 0 6 2 7 5 4-2 7-5 7-9 0-3-2-5-4-6 1-1 2-3 2-5 0-6-4-10-10-10z" fill="url(#g)"/>
</svg>
